<?xml version="1.0" encoding="utf-8"?>
<svg viewBox="0 0 180 90" xmlns="http://www.w3.org/2000/svg" xmlns:bx="https://boxy-svg.com">
  <defs>
    <clipPath id="clipPath18" clipPathUnits="userSpaceOnUse">
      <path id="path16" d="M 0,155.91 H 255.12 V 0 H 0 Z"/>
    </clipPath>
  </defs>
  <g transform="matrix(1.404025, 0, 0, -1.333333, 5.338722, 148.939514)" id="g10" bx:origin="0.5 0.518">
    <g id="g12">
      <g clip-path="url(#clipPath18)" id="g14">
        <g transform="translate(103.8101,6.9609)" id="g20"/>
        <g transform="translate(123.4136,14.417)" id="g24"/>
        <g transform="translate(125.1304,6.3926)" id="g28"/>
        <g transform="translate(124.4448,13.2275)" id="g32"/>
        <g transform="translate(127.4917,9.665)" id="g36"/>
        <g transform="translate(133.6035,7.585)" id="g40"/>
        <g transform="translate(139.2168,6.3955)" id="g44"/>
        <g transform="translate(143.2949,8.1006)" id="g48"/>
        <g transform="translate(153.3145,6.2783)" id="g52"/>
        <g transform="translate(117.0913,12.0381)" id="g56"/>
        <g transform="translate(147.9395,75.335)" id="g60"/>
        <g transform="translate(151.8496,81.7314)" id="g64"/>
        <g transform="translate(156.3809,80.8428)" id="g68"/>
        <g transform="translate(164.8203,79.0654)" id="g72"/>
        <g transform="translate(172.2842,80.1318)" id="g76"/>
        <g transform="translate(174.5059,81.7314)" id="g80"/>
        <g transform="translate(179.3047,79.0654)" id="g84"/>
        <g transform="translate(188.2783,80.1318)" id="g88"/>
        <g transform="translate(191.8311,80.9316)" id="g92"/>
        <g transform="translate(200.1836,80.1318)" id="g96"/>
        <g transform="translate(204.8047,79.0654)" id="g100"/>
        <g transform="translate(207.9141,81.7314)" id="g104"/>
        <g transform="translate(212.7129,79.0654)" id="g108"/>
        <g transform="translate(218.2207,79.0654)" id="g112"/>
        <g transform="translate(227.1943,80.1318)" id="g116"/>
        <g transform="translate(232.083,79.5098)" id="g120"/>
        <g transform="translate(234.9248,73.7354)" id="g124"/>
        <g transform="translate(243.0107,79.0654)" id="g128"/>
        <g transform="translate(247.7188,79.2432)" id="g132"/>
        <g transform="translate(130.2588,97.1025)" id="g136"/>
        <g transform="translate(55.1782,73.291)" id="g140">
          <path id="path142" style="fill:#008c44;fill-opacity:1;fill-rule:nonzero;stroke:none" d="m 0,0 c -3.909,0 -7.107,3.554 -7.107,7.907 0,4.354 3.198,7.908 7.107,7.908 3.91,0 7.109,-3.554 7.109,-7.908 C 7.02,3.554 3.82,0 0,0 m 0,20.347 c -7.463,0 -13.505,-5.598 -13.505,-12.351 0,-6.842 6.042,-12.35 13.505,-12.35 7.464,0 13.505,5.597 13.505,12.35 C 13.418,14.749 7.375,20.347 0,20.347"/>
        </g>
        <g transform="translate(102.8921,89.373)" id="g144">
          <path id="path146" style="fill:#008c44;fill-opacity:1;fill-rule:nonzero;stroke:none" d="m 0,0 c 2.932,0 3.909,-0.622 3.909,-2.844 0,-1.865 -1.155,-2.665 -3.82,-2.665 h -1.6 L -3.11,-9.951 h 3.376 c 2.932,0 4.443,-0.979 4.443,-3.198 0,-2.311 -1.6,-3.2 -4.62,-3.2 H -3.82 L -3.82,0 Z m 11.106,-13.149 c 0,0.888 -0.267,1.776 -0.622,2.576 -0.443,0.8 -0.978,1.51 -1.866,2.132 -0.444,0.266 -0.889,0.533 -1.421,0.799 0.888,0.445 1.599,1.067 2.132,1.778 0.8,1.065 1.066,2.398 1.066,3.82 C 10.308,-0.267 9.685,1.155 8.529,2.132 7.375,3.109 5.597,3.731 3.376,3.731 H -9.952 v -23.633 h 11.64 c 2.044,0 3.821,0.265 5.243,0.798 1.51,0.535 2.575,1.333 3.287,2.4 0.621,0.888 0.888,2.132 0.888,3.555"/>
        </g>
        <g transform="translate(90.3638,75.1563)" id="g148">
          <path id="path150" style="fill:#008c44;fill-opacity:1;fill-rule:nonzero;stroke:none" d="m 0,0 c -1.51,-1.155 -3.465,-1.955 -5.597,-1.955 -4.709,0 -8.529,3.554 -8.529,7.908 0,4.355 3.82,7.908 8.529,7.908 2.132,0 4.087,-0.711 5.597,-1.955 v 4.798 c -1.954,0.978 -4.265,1.6 -6.752,1.6 -7.642,0 -13.773,-5.509 -13.773,-12.351 0,-6.841 6.131,-12.349 13.773,-12.349 2.398,0 4.708,0.532 6.752,1.599 z"/>
        </g>
        <g transform="translate(45.583,62.0068)" id="g152">
          <path id="path154" style="fill:#008c44;fill-opacity:1;fill-rule:nonzero;stroke:none" d="M 0,0 V 1.155 2.221 3.376 3.465 H -0.978 V 3.376 2.397 1.065 0.799 0.267 c -0.088,0.177 -0.177,0.354 -0.355,0.621 -0.178,0.354 -0.356,0.622 -0.533,0.978 -0.177,0.355 -0.355,0.621 -0.445,0.799 -0.177,0.267 -0.267,0.534 -0.444,0.8 V 3.554 H -3.91 V 3.465 2.221 1.065 -0.09 -1.245 -1.333 h 0.978 v 0.088 1.067 1.243 0.445 0.444 l 1.866,-3.199 H 0 v 0.09 L 0,0"/>
        </g>
        <g transform="translate(48.3379,62.3613)" id="g156">
          <path id="path158" style="fill:#008c44;fill-opacity:1;fill-rule:nonzero;stroke:none" d="m 0,0 c 0,-0.265 -0.089,-0.444 -0.267,-0.622 -0.089,-0.177 -0.267,-0.177 -0.444,-0.177 -0.178,0 -0.355,0.09 -0.444,0.177 -0.09,0.09 -0.178,0.357 -0.178,0.622 0,0.267 0,0.533 0.088,0.711 0.09,0.177 0.179,0.267 0.356,0.356 0.178,0.088 0.266,0.088 0.533,0.088 L 0,1.155 V 0 m -0.356,2.043 c -0.267,0 -0.533,0 -0.71,-0.087 C -1.333,1.866 -1.512,1.776 -1.689,1.6 -1.866,1.422 -2.043,1.155 -2.133,0.888 -2.222,0.623 -2.311,0.267 -2.222,-0.088 c 0,-0.356 0.089,-0.621 0.266,-0.889 0.178,-0.266 0.267,-0.443 0.534,-0.533 0.177,-0.09 0.444,-0.178 0.621,-0.178 0.178,0 0.445,0.088 0.623,0.178 0.089,0.09 0.178,0.177 0.265,0.267 0,-0.267 0,-0.534 -0.087,-0.711 0,-0.178 -0.089,-0.268 -0.178,-0.355 -0.089,-0.089 -0.267,-0.089 -0.445,-0.089 -0.355,0 -0.71,0.089 -1.066,0.266 h -0.177 l 0.088,-0.977 h 0.089 c 0.177,-0.088 0.356,-0.088 0.623,-0.178 0.265,0 0.443,-0.09 0.71,-0.09 0.443,0 0.8,0.09 1.066,0.357 0.266,0.177 0.356,0.622 0.356,1.156 v 3.64 0.09 H 0.976 C 0.354,1.956 0,2.043 -0.356,2.043"/>
        </g>
        <g transform="translate(51.1807,65.0283)" id="g160">
          <path id="path162" style="fill:#008c44;fill-opacity:1;fill-rule:nonzero;stroke:none" d="m 0,0 0.267,-0.267 h 0.621 l -0.354,0.71 h -1.067 l -0.356,-0.71 h 0.622 z"/>
        </g>
        <g transform="translate(52.603,61.6523)" id="g164">
          <path id="path166" style="fill:#008c44;fill-opacity:1;fill-rule:nonzero;stroke:none" d="m 0,0 v 0.976 0.8 c 0,0.622 -0.444,0.976 -1.246,0.976 -0.354,0 -0.798,-0.087 -1.242,-0.177 h -0.09 V 1.687 l 0.09,0.089 c 0.087,0.088 0.266,0.178 0.532,0.178 0.178,0.087 0.356,0.087 0.534,0.087 0.443,0 0.443,-0.177 0.443,-0.265 C -0.979,1.597 -1.067,1.51 -1.067,1.51 -1.156,1.42 -1.422,1.332 -1.778,1.242 -2.134,1.153 -2.401,0.976 -2.667,0.799 -2.845,0.621 -2.932,0.354 -2.932,0 c 0,-0.356 0.087,-0.534 0.265,-0.801 0.179,-0.178 0.445,-0.267 0.889,-0.267 0.089,0 0.267,0 0.532,0.089 h 0.09 l 0.177,0.799 -0.177,-0.088 c -0.09,0 -0.178,-0.088 -0.444,-0.088 -0.356,0 -0.356,0.176 -0.356,0.356 0,0.177 0,0.265 0.178,0.354 0.089,0.09 0.267,0.177 0.532,0.267 0.179,0.088 0.267,0.088 0.357,0.178 v -1.6 -0.09 h 0.976 v 0.09 C 0,-0.624 0,-0.356 0,0"/>
        </g>
        <g transform="translate(56.3335,61.2959)" id="g168">
          <path id="path170" style="fill:#008c44;fill-opacity:1;fill-rule:nonzero;stroke:none" d="M 0,0 V 0.711 1.422 1.866 C 0,2.043 -0.088,2.311 -0.088,2.487 -0.177,2.665 -0.267,2.842 -0.444,2.932 -0.622,3.021 -0.888,3.108 -1.155,3.108 -1.6,3.108 -1.954,2.932 -2.132,2.665 V 3.021 H -3.109 V 2.932 -0.534 -0.622 h 0.977 V -0.534 -0.178 0 0.533 0.978 1.332 c 0.088,0.534 0.267,0.801 0.711,0.801 0.356,0 0.533,-0.18 0.533,-0.623 0,-0.622 0,-1.243 -0.089,-2.044 V -0.622 H 0 v 0.088 L 0,0"/>
        </g>
        <g transform="translate(62.5532,65.3828)" id="g172">
          <path id="path174" style="fill:#008c44;fill-opacity:1;fill-rule:nonzero;stroke:none" d="M 0,0 V 0 L -1.066,0.089 V 0 -1.776 H -2.843 V -1.065 -0.09 0 h -1.066 v -0.09 c 0,-0.709 0.089,-1.51 0.089,-2.308 v -2.311 -0.09 h 1.067 v 0.178 0.356 0.267 0.354 0.09 0.445 0.354 h 1.776 v -0.975 -0.979 -0.09 h 1.066 v 0.09 C 0,-3.376 0,-1.776 0,0"/>
        </g>
        <g transform="translate(65.0415,64.6719)" id="g176">
          <path id="path178" style="fill:#008c44;fill-opacity:1;fill-rule:nonzero;stroke:none" d="M 0,0 -0.356,0.8 H -1.421 L -0.71,0 Z"/>
        </g>
        <g transform="translate(65.9297,61.6523)" id="g180">
          <path id="path182" style="fill:#008c44;fill-opacity:1;fill-rule:nonzero;stroke:none" d="M 0,0 V 0.976 1.51 1.776 c 0,0.622 -0.444,0.976 -1.244,0.976 -0.354,0 -0.8,-0.087 -1.244,-0.177 H -2.577 V 1.687 l 0.089,0.089 c 0.089,0.088 0.267,0.178 0.533,0.178 0.178,0.087 0.357,0.087 0.534,0.087 0.444,0 0.444,-0.177 0.444,-0.265 0,-0.179 -0.09,-0.266 -0.09,-0.266 C -1.154,1.42 -1.421,1.332 -1.777,1.242 -2.132,1.153 -2.399,0.976 -2.577,0.799 -2.754,0.621 -2.843,0.354 -2.843,0 c 0,-0.356 0.089,-0.534 0.355,-0.801 0.178,-0.178 0.444,-0.267 0.89,-0.267 0.087,0 0.265,0 0.531,0.089 h 0.09 L -0.8,-0.18 -0.977,-0.268 c -0.09,0 -0.177,-0.088 -0.444,-0.088 -0.356,0 -0.356,0.176 -0.444,0.356 0,0.177 0,0.265 0.177,0.354 0.088,0.09 0.267,0.177 0.534,0.267 0.177,0.088 0.266,0.088 0.354,0.178 v -1.6 -0.09 h 0.978 v 0.09 C 0,-0.624 0,-0.356 0,0"/>
        </g>
        <g transform="translate(69.6616,61.2959)" id="g184">
          <path id="path186" style="fill:#008c44;fill-opacity:1;fill-rule:nonzero;stroke:none" d="m 0,0 v 0.711 0.621 0.09 0.444 C 0,2.043 -0.09,2.311 -0.09,2.487 -0.177,2.665 -0.267,2.842 -0.444,2.932 -0.622,3.021 -0.888,3.108 -1.155,3.108 -1.6,3.108 -1.954,2.932 -2.132,2.665 V 3.021 H -3.109 V 2.932 -0.534 -0.622 h 0.977 v 0.088 0.18 V 0 0.533 0.978 1.332 c 0.088,0.534 0.265,0.801 0.71,0.801 0.357,0 0.534,-0.18 0.534,-0.623 0,-0.622 0,-1.243 -0.09,-2.044 v -0.088 h 1.066 v 0.088 C 0,-0.268 0,-0.088 0,0"/>
        </g>
        <g transform="translate(72.3267,62.3613)" id="g188">
          <path id="path190" style="fill:#008c44;fill-opacity:1;fill-rule:nonzero;stroke:none" d="m 0,0 c 0,-0.265 -0.088,-0.444 -0.267,-0.622 -0.087,-0.177 -0.266,-0.177 -0.444,-0.177 -0.177,0 -0.354,0.09 -0.444,0.177 -0.088,0.09 -0.178,0.357 -0.178,0.622 0,0.267 0,0.533 0.09,0.711 0.088,0.177 0.178,0.267 0.355,0.356 0.177,0.088 0.355,0.088 0.534,0.088 L 0,1.155 V 0 m -0.354,2.043 c -0.267,0 -0.534,0 -0.711,-0.087 C -1.333,1.866 -1.51,1.776 -1.688,1.6 -1.865,1.422 -2.043,1.155 -2.132,0.888 -2.221,0.623 -2.31,0.267 -2.221,-0.088 c 0,-0.356 0.089,-0.621 0.267,-0.889 0.177,-0.266 0.354,-0.443 0.533,-0.533 0.178,-0.09 0.444,-0.178 0.623,-0.178 0.177,0 0.444,0.088 0.621,0.178 0.089,0.09 0.177,0.177 0.267,0.267 0,-0.267 0,-0.534 -0.09,-0.711 0,-0.178 -0.088,-0.268 -0.177,-0.355 -0.09,-0.089 -0.267,-0.089 -0.444,-0.089 -0.356,0 -0.712,0.089 -1.067,0.266 h -0.177 l 0.088,-0.977 h 0.089 c 0.178,-0.088 0.355,-0.088 0.623,-0.178 0.267,0 0.444,-0.09 0.711,-0.09 0.444,0 0.798,0.09 1.065,0.357 0.268,0.177 0.356,0.622 0.356,1.156 v 3.64 0.09 H 0.979 C 0.356,1.956 0,2.043 -0.354,2.043"/>
        </g>
        <g transform="translate(82.2783,61.4727)" id="g192">
          <path id="path194" style="fill:#008c44;fill-opacity:1;fill-rule:nonzero;stroke:none" d="m 0,0 v 0.889 0.8 C 0,2.044 -0.177,2.4 -0.355,2.578 -0.534,2.755 -0.888,2.845 -1.244,2.845 -1.51,2.845 -1.776,2.755 -1.955,2.665 -2.043,2.578 -2.132,2.488 -2.221,2.4 V 3.91 3.999 H -3.199 V 3.91 c 0.09,-1.599 0.09,-3.199 0,-4.621 v -0.088 h 0.978 v 0.088 1.6 c 0,0.356 0.089,0.623 0.178,0.8 0.088,0.177 0.267,0.267 0.444,0.267 0.177,0 0.355,0 0.444,-0.18 0.09,-0.087 0.177,-0.264 0.177,-0.531 0,-0.621 0,-1.245 -0.087,-1.956 V -0.799 H 0 v 0.088 L 0,0"/>
        </g>
        <g transform="translate(93.2075,61.2959)" id="g196">
          <path id="path198" style="fill:#008c44;fill-opacity:1;fill-rule:nonzero;stroke:none" d="m 0,0 v 0.711 0.711 0.444 c 0,0.177 -0.089,0.445 -0.089,0.531 -0.09,0.18 -0.178,0.358 -0.355,0.445 -0.179,0.09 -0.356,0.179 -0.712,0.179 -0.444,0 -0.8,-0.179 -0.976,-0.444 v 0.355 h -1.067 v -0.09 -3.464 -0.09 h 0.977 v 0.09 0.178 0.266 0.534 0.445 0.354 c 0.09,0.533 0.266,0.798 0.711,0.798 0.355,0 0.534,-0.177 0.534,-0.621 0,-0.531 0,-1.243 -0.09,-2.044 V -0.799 H 0 v 0.087 L 0,0"/>
        </g>
        <g transform="translate(95.8726,62.3613)" id="g200">
          <path id="path202" style="fill:#008c44;fill-opacity:1;fill-rule:nonzero;stroke:none" d="m 0,0 c 0,-0.265 -0.089,-0.444 -0.266,-0.622 -0.089,-0.177 -0.267,-0.177 -0.444,-0.177 -0.179,0 -0.357,0.09 -0.444,0.177 -0.09,0.09 -0.179,0.357 -0.179,0.622 0,0.267 0,0.533 0.089,0.711 0.09,0.177 0.177,0.267 0.355,0.356 0.179,0.088 0.356,0.088 0.534,0.088 L 0,1.155 V 0 m -0.355,2.043 c -0.268,0 -0.534,0 -0.712,-0.087 C -1.333,1.866 -1.511,1.776 -1.688,1.6 -1.865,1.422 -2.042,1.155 -2.132,0.888 -2.221,0.623 -2.31,0.267 -2.221,-0.088 c 0,-0.356 0.089,-0.621 0.266,-0.889 0.178,-0.266 0.267,-0.443 0.534,-0.533 0.177,-0.09 0.444,-0.178 0.621,-0.178 0.177,0 0.445,0.088 0.623,0.178 0.088,0.09 0.177,0.177 0.265,0.267 0,-0.267 0,-0.534 -0.088,-0.711 0,-0.178 -0.089,-0.268 -0.177,-0.355 -0.089,-0.089 -0.267,-0.089 -0.446,-0.089 -0.354,0 -0.71,0.089 -1.065,0.266 l -0.089,0.088 0.089,-0.976 h 0.089 c 0.178,-0.089 0.355,-0.089 0.622,-0.177 0.267,0 0.444,-0.09 0.711,-0.09 0.444,0 0.799,0.09 1.066,0.354 0.267,0.18 0.355,0.624 0.355,1.156 v 3.643 0.09 H 1.067 C 0.355,1.956 0,2.043 -0.355,2.043"/>
        </g>
        <g transform="translate(102.0923,62.4512)" id="g204">
          <path id="path206" style="fill:#008c44;fill-opacity:1;fill-rule:nonzero;stroke:none" d="m 0,0 c -0.088,-0.268 -0.177,-0.444 -0.444,-0.622 -0.178,-0.177 -0.444,-0.267 -0.8,-0.267 h -0.533 v 1.156 h 0.267 0.622 0.088 v 0.888 h -0.977 v 1.066 h 0.889 c 0.266,0 0.444,-0.088 0.533,-0.178 C -0.177,1.953 -0.088,1.776 0,1.6 0.089,1.422 0.089,1.155 0.089,0.978 0.089,0.533 0.089,0.267 0,0 M 0.533,2.487 C 0.177,2.842 -0.267,3.021 -0.8,3.021 H -2.755 V 2.932 1.065 H -3.288 V 0.267 h 0.533 v -1.956 -0.088 h 1.777 c 0.534,0 0.89,0.088 1.245,0.354 0.355,0.18 0.533,0.534 0.711,0.889 0.177,0.356 0.177,0.801 0.177,1.332 C 1.065,1.6 0.889,2.133 0.533,2.487"/>
        </g>
        <g transform="translate(105.646,61.8291)" id="g208">
          <path id="path210" style="fill:#008c44;fill-opacity:1;fill-rule:nonzero;stroke:none" d="m 0,0 c -0.089,-0.177 -0.266,-0.356 -0.533,-0.356 -0.178,0 -0.356,0.089 -0.533,0.266 -0.177,0.178 -0.177,0.444 -0.177,0.712 0,0.355 0.088,0.711 0.177,0.888 0.089,0.178 0.267,0.267 0.533,0.267 C -0.266,1.777 -0.177,1.688 0,1.51 0.09,1.333 0.178,1.065 0.178,0.799 0.178,0.444 0.09,0.178 0,0 M 0.888,1.688 C 0.711,1.954 0.534,2.222 0.267,2.309 0,2.488 -0.266,2.575 -0.622,2.575 -0.977,2.575 -1.243,2.488 -1.51,2.309 -1.777,2.132 -1.954,1.864 -2.044,1.6 -2.131,1.333 -2.221,0.977 -2.221,0.622 c 0,-0.268 0.09,-0.444 0.09,-0.712 0.087,-0.177 0.177,-0.443 0.354,-0.531 0.177,-0.18 0.356,-0.267 0.534,-0.357 0.177,-0.089 0.444,-0.177 0.71,-0.177 0.356,0 0.711,0.088 0.977,0.267 0.267,0.177 0.444,0.444 0.534,0.711 C 1.066,0.088 1.155,0.444 1.155,0.799 1.066,1.155 1.066,1.42 0.888,1.688"/>
        </g>
        <g transform="translate(105.0244,65.0283)" id="g212">
          <path id="path214" style="fill:#008c44;fill-opacity:1;fill-rule:nonzero;stroke:none" d="m 0,0 0.267,-0.267 h 0.622 l -0.356,0.71 h -1.067 l -0.354,-0.71 h 0.621 z"/>
        </g>
        <g transform="translate(110.355,61.2959)" id="g216">
          <path id="path218" style="fill:#008c44;fill-opacity:1;fill-rule:nonzero;stroke:none" d="M 0,0 V 0.711 0.888 1.51 1.953 c 0,0.18 -0.087,0.444 -0.087,0.624 -0.09,0.178 -0.179,0.355 -0.357,0.444 -0.178,0.087 -0.445,0.177 -0.71,0.177 -0.445,0 -0.8,-0.177 -0.977,-0.443 v 0.353 h -0.978 v -0.087 -3.465 -0.09 h 0.978 v 0.09 0.533 0.532 0.444 0.357 c 0.087,0.531 0.265,0.799 0.71,0.799 0.355,0 0.532,-0.178 0.532,-0.622 0,-0.534 0,-1.243 -0.087,-2.043 v -0.09 h 1.065 v 0.09 C 0,-0.268 0,-0.088 0,0"/>
        </g>
        <g transform="translate(113.021,62.3613)" id="g220">
          <path id="path222" style="fill:#008c44;fill-opacity:1;fill-rule:nonzero;stroke:none" d="m 0,0 c 0,-0.265 -0.088,-0.444 -0.266,-0.622 -0.089,-0.177 -0.267,-0.177 -0.445,-0.177 -0.177,0 -0.356,0.09 -0.444,0.177 -0.089,0.09 -0.178,0.357 -0.178,0.622 0,0.267 0,0.533 0.089,0.711 0.089,0.177 0.177,0.267 0.356,0.356 0.177,0.088 0.355,0.088 0.533,0.088 L 0,1.155 V 0 m 0.977,1.866 v 0 C 0.355,2.043 0,2.043 -0.355,2.043 c -0.268,0 -0.533,0 -0.712,-0.087 C -1.333,1.866 -1.511,1.776 -1.688,1.6 -1.865,1.422 -2.043,1.245 -2.132,0.888 -2.222,0.623 -2.31,0.267 -2.222,-0.088 c 0,-0.356 0.09,-0.621 0.267,-0.889 0.177,-0.266 0.267,-0.443 0.534,-0.533 0.177,-0.09 0.444,-0.178 0.621,-0.178 0.177,0 0.445,0.088 0.622,0.178 0.09,0.09 0.178,0.177 0.267,0.267 0,-0.267 0,-0.534 -0.089,-0.711 0,-0.178 -0.088,-0.268 -0.178,-0.355 -0.088,-0.089 -0.266,-0.089 -0.445,-0.089 -0.265,0 -0.71,0.089 -1.065,0.266 l -0.09,0.088 0.09,-0.976 H -1.6 c 0.179,-0.089 0.356,-0.089 0.623,-0.177 0.266,0 0.444,-0.09 0.711,-0.09 0.445,0 0.799,0.09 1.066,0.354 0.267,0.18 0.354,0.624 0.354,1.156 -0.265,1.245 -0.265,2.488 -0.177,3.643"/>
        </g>
        <g transform="translate(85.832,63.6064)" id="g224">
          <path id="path226" style="fill:#008c44;fill-opacity:1;fill-rule:nonzero;stroke:none" d="m 0,0 c 0.267,0.087 0.534,0.267 0.623,0.531 0.088,0.267 0,0.534 -0.268,0.711 C 0.267,1.332 0.09,1.332 0,1.332 c -0.177,0 -0.267,-0.09 -0.444,-0.177 h -0.089 l 0.179,-0.357 0.087,0.09 0.179,0.09 H 0 C 0.09,0.888 0.09,0.798 0.09,0.711 L 0,0.621 v 0.09 0.087 H -0.977 V 0.711 c 0,-0.444 0.089,-1.512 0,-1.956 0,-0.355 -0.178,-0.709 -0.623,-0.709 -0.354,0 -0.531,0.177 -0.531,0.621 v 1.954 0.09 h -0.978 v -0.09 -1.6 -0.798 c 0,-0.711 0.444,-1.156 1.155,-1.156 0.444,0 0.799,0.178 0.977,0.445 v -0.357 h 0.889 v 0.09 C 0,-1.954 0,-0.979 0,0"/>
        </g>
        <g transform="translate(88.4097,61.6523)" id="g228">
          <path id="path230" style="fill:#008c44;fill-opacity:1;fill-rule:nonzero;stroke:none" d="m 0,0 c -0.09,-0.09 -0.267,-0.18 -0.444,-0.18 -0.534,0 -0.711,0.534 -0.711,0.889 0,0.444 0.089,0.801 0.267,0.978 0.087,0.089 0.265,0.177 0.444,0.177 0.621,0 0.71,-0.711 0.71,-0.975 C 0.266,0.531 0.177,0.177 0,0 m 0.799,2.131 c 0.09,0.09 0.267,0.178 0.355,0.354 0.089,0.267 0,0.535 -0.265,0.711 -0.09,0.09 -0.267,0.09 -0.357,0.09 -0.178,0 -0.266,-0.09 -0.445,-0.177 H 0 l 0.177,-0.357 0.089,0.09 0.178,0.09 h 0.088 c 0.09,-0.09 0.09,-0.18 0.09,-0.267 0,0 -0.09,-0.09 -0.178,-0.09 C 0.177,2.752 -0.09,2.842 -0.444,2.842 -0.888,2.842 -1.333,2.665 -1.6,2.398 -1.955,2.041 -2.133,1.51 -2.043,0.889 c 0,-0.802 0.532,-1.78 1.687,-1.78 0.443,0 0.888,0.18 1.155,0.447 0.444,0.531 0.444,1.243 0.444,1.509 0,0.355 -0.177,0.799 -0.444,1.066"/>
        </g>
        <g transform="translate(78.7251,64.2275)" id="g232">
          <path id="path234" style="fill:#008c44;fill-opacity:1;fill-rule:nonzero;stroke:none" d="m 0,0 c 0,0.267 -0.09,0.444 -0.178,0.621 -0.089,0.18 -0.179,0.358 -0.356,0.444 -0.177,0.09 -0.355,0.179 -0.533,0.179 H -2.932 V 1.155 -0.09 -1.155 -2.311 -3.376 -3.466 h 0.977 v 0.09 c 0,0.356 -0.089,3.199 -0.089,3.466 v 0.354 h 0.533 c 0.178,0 0.356,0 0.444,-0.088 0.089,-0.089 0.089,-0.179 0.178,-0.356 0,-0.177 0,-0.354 -0.178,-0.534 -0.266,-0.355 -0.711,-0.177 -0.8,-0.177 l 0.178,-0.799 c 0,0 0.711,-0.177 1.155,0.177 0.177,0.178 0.356,0.354 0.444,0.622 C 0,-0.534 0,-0.267 0,0"/>
        </g>
        <g transform="translate(6.4883,79.5098)" id="g236">
          <path id="path238" style="fill:#e39717;fill-opacity:1;fill-rule:nonzero;stroke:none" d="m 0,0 c 0.444,-3.73 2.132,-7.02 4.621,-9.418 -0.267,0.8 -0.356,1.6 -0.179,2.312 0.534,2.22 2.755,3.73 5.865,4.174 V 7.73 C 2.132,9.152 -0.533,3.999 0,0"/>
        </g>
        <g transform="translate(37.5864,82.9756)" id="g240">
          <path id="path242" style="fill:#e39717;fill-opacity:1;fill-rule:nonzero;stroke:none" d="M 0,0 C -0.445,3.731 -2.132,7.019 -4.62,9.418 -4.353,8.707 -4.266,7.907 -4.443,7.108 -4.976,4.887 -7.197,3.376 -10.307,2.932 V -7.73 C -2.132,-9.152 0.444,-3.91 0,0"/>
        </g>
        <g transform="translate(6.7549,84.752)" id="g244">
          <path id="path246" style="fill:#e39717;fill-opacity:1;fill-rule:nonzero;stroke:none" d="m 0,0 c 2.132,2.933 5.953,4.621 12.973,2.577 12.35,-3.465 16.348,4.621 9.329,7.908 -2.133,1.066 -4.532,1.688 -7.019,1.688 C 7.819,12.173 1.6,6.931 0,0"/>
        </g>
        <g transform="translate(37.3193,77.8223)" id="g248">
          <path id="path250" style="fill:#e39717;fill-opacity:1;fill-rule:nonzero;stroke:none" d="m 0,0 c -2.132,-2.933 -5.953,-4.621 -12.972,-2.577 -12.439,3.466 -16.438,-4.62 -9.418,-7.996 2.132,-1.068 4.531,-1.689 7.019,-1.689 C -7.819,-12.172 -1.598,-7.019 0,0"/>
        </g>
      </g>
    </g>
  </g>
</svg>